<svg version="1.2" xmlns="http://www.w3.org/2000/svg" viewBox="0 0 512 512" width="512" height="512">
	<style>
		.s0 { fill: #318538 } 
		.s1 { fill: #9e671f } 
	</style>
	<path id="Meeple" class="s0" d="m256 54.99c-27 0-46.42 14.29-57.63 32.23-10.03 16.05-14.21 34.66-15.02 50.96-30.61 15.14-64.52 30.4-91.81 46-14.32 8.18-26.81 16.41-36.21 25.26-9.4 8.84-16.33 18.8-16.33 30.55 0 5 2.44 9.07 5.19 12.07 2.75 2.99 6.05 5.31 9.81 7.48 7.52 4.33 16.99 7.95 27.41 11.07 15.49 4.65 32.83 8.1 47.9 9.58-14.99 25.84-34.95 49.57-52.44 72.31-20.22 26.29-37.87 51.49-37.87 79.49 0 4-0.04 7.12 0.31 10.26 0.35 3.14 1.26 7.05 4.41 10.16 3.15 3.1 7.02 3.93 10.16 4.28 3.15 0.34 6.32 0.3 10.38 0.3h111.55c8.09 0 14.02 0.49 20.12-3.43 6.1-3.92 8.32-9.28 12.67-17.28l0.09-0.16 0.08-0.16c0 0 9.72-19.77 21.32-39.39 5.8-9.81 12.1-19.58 17.58-26.5 2.74-3.46 5.3-6.2 7.15-7.75 0.56-0.47 0.82-0.56 1.18-0.76 0.36 0.2 0.62 0.29 1.18 0.76 1.85 1.55 4.41 4.29 7.15 7.75 5.48 6.93 11.78 16.69 17.58 26.5 11.6 19.62 21.32 39.39 21.32 39.39l0.08 0.16 0.09 0.16c4.35 8 6.55 13.33 12.61 17.26 6.06 3.93 11.97 3.45 19.96 3.45h112.03c4 0 7.12 0.04 10.24-0.31 3.13-0.34 7-1.21 10.12-4.33 3.12-3.12 3.99-7 4.33-10.12 0.35-3.12 0.31-6.24 0.31-10.24 0-28-17.65-53.21-37.87-79.49-17.49-22.74-37.45-46.47-52.44-72.32 15.07-1.47 32.41-4.93 47.9-9.57 10.42-3.13 19.89-6.74 27.41-11.08 3.76-2.16 7.06-4.49 9.81-7.48 2.75-2.99 5.19-7.06 5.19-12.06 0-11.75-6.93-21.71-16.33-30.56-9.4-8.84-21.89-17.07-36.21-25.26-27.3-15.6-61.2-30.86-91.81-45.99-0.81-16.3-4.99-34.91-15.02-50.96-11.21-17.94-30.63-32.23-57.63-32.23z"/>
	<path id="Staff" fill-rule="evenodd" class="s1" d="m500.9 448.55l-0.9 0.21c-0.11 3.97-2.71 7.6-6.73 8.82-4.47 1.37-9.17-0.72-11.22-4.75l-0.42 0.09-73.28-322.97q-1.17 0.05-2.35 0.05c-21.77 0-40.76-11.75-50.99-29.26-0.6-0.34-1.01-0.99-1.01-1.74 0-1.11 0.89-2 2-2 1.11 0 2 0.89 2 2q0 0.15-0.02 0.3c9.24 8.42 22.62 13.7 37.52 13.7 27.93 0 50.5-18.55 50.5-41.5 0-22.95-22.57-41.5-50.5-41.5-12.63 0-24.16 3.79-33 10.07q0 0.09 0 0.18c0 1.8-1.45 3.25-3.25 3.25-1.8 0-3.25-1.45-3.25-3.25q0-0.13 0.01-0.25h-0.24q0.16-0.26 0.32-0.51c0.18-0.75 0.62-1.4 1.21-1.84 10.62-15.5 28.46-25.65 48.7-25.65 32.63 0 59 26.37 59 59 0 24.97-15.44 46.27-37.31 54.9z"/>
</svg>